# xmcd
#
# Track frame offsets:
# 150
# 20297
# 40037
# 61080
# 84475
# 97554
# 124190
# 136827
# 155370
# 175035
# 197920
#
# Disc length: 2764 seconds
#
# Revision: 1
# Processed by: cddbd v1.5.1PL0 Copyright (c) Steve Scherf et al.
# Submitted via: Easy CD Ripper v2.35
#
DISCID=790aca0b
DTITLE=Yolanda del Hierro - A Rainbow on the Keys
DYEAR=1997
DGENRE=Instrumental
TTITLE0=Letting Go - Yolanda del Hierro
TTITLE1=A Pearl in the Winther Sky - Yolanda del Hierro
TTITLE2=Dance With Me - Yolanda del Hierro
TTITLE3=The Merge Deepens - Yolanda del Hierro
TTITLE4=Listen to the Flowers - Yolanda del Hierro
TTITLE5=Silent Beloved - Yolanda del Hierro
TTITLE6=Being Easy - Yolanda del Hierro
TTITLE7=Going There - Yolanda del Hierro
TTITLE8=The Call - Yolanda del Hierro
TTITLE9=Taking Delight - Yolanda del Hierro
TTITLE10=Disappearing - Yolanda del Hierro
EXTD=
EXTT0=
EXTT1=
EXTT2=
EXTT3=
EXTT4=
EXTT5=
EXTT6=
EXTT7=
EXTT8=
EXTT9=
EXTT10=
PLAYORDER=
